<svg xmlns="http://www.w3.org/2000/svg" fill="none" viewBox="0 0 24 24" id="Milvus-Icon--Streamline-Svg-Logos" height="24" width="24">
  <desc>
    Milvus Icon Streamline Icon: https://streamlinehq.com
  </desc>
  <path fill="#4fc4f9" d="M5.569 6.3421c3.116125 -3.127425 8.169125 -3.127425 11.285225 0 3.12115 3.1274 3.12115 8.197925 0 11.32025 -3.1161 3.1223 -8.1691 3.1223 -11.285225 -0.005125L0.475805 12.54565c-0.30107375 -0.302475 -0.30107375 -0.7895 0 -1.092025L5.569 6.3421Zm10.0759 1.502175c-2.288125 -2.29685 -6.0014 -2.29685 -8.289525 0L3.612 11.5972c-0.2208 0.22555 -0.2208 0.58445 0 0.804925l3.74835 3.758025c2.2882 2.29685 6.001425 2.29685 8.2896 0s2.288175 -6.019 -0.00505 -8.315875Zm-4.11485 0.148675c2.169975 0 3.92905 1.7973 3.92905 4.0144 0 2.21705 -1.759075 4.0144 -3.92905 4.0144 -2.169925 0 -3.928975 -1.79735 -3.928975 -4.0144 0 -2.2171 1.75905 -4.0144 3.928975 -4.0144Zm11.997925 3.46575 -2.243 -2.291725c-0.135475 -0.13845 -0.361325 -0.01025 -0.316125 0.179425 0.386375 1.748275 0.386375 3.5735 0 5.321775 -0.04015 0.189675 0.185625 0.3127 0.316125 0.179425l2.243 -2.291725c0.278625 -0.289525 0.295 -0.738 0.049175 -1.04195l-0.049175 -0.055225Z" stroke-width="0.25"></path>
</svg>